# xmcd CD database file
#
# Track frame offsets:
#	187
#	34852
#	71162
#	121907
#	169205
#	197497
#	234597
#	265892
#	299555
#
# Disc length: 4463 seconds
#
# Revision: 0
# Processed by: cddbd v1.5.2PL0 Copyright (c) Steve Scherf et al.
# Submitted via: CDex 1.70beta1
#
DISCID=87116d09
DTITLE=Don Thompson Quartet - Winter Mist
DYEAR=1990
DGENRE=Jazz
TTITLE0=Nothin' Changes
TTITLE1=Ruby
TTITLE2=Alone Together
TTITLE3=Winter Mist
TTITLE4=Hannako
TTITLE5=Moon Walk
TTITLE6=What News
TTITLE7=Never Let Me Go
TTITLE8=Blue Monk
EXTD=YEAR: 1990
EXTT0=
EXTT1=
EXTT2=
EXTT3=
EXTT4=
EXTT5=
EXTT6=
EXTT7=
EXTT8=
PLAYORDER=
